<svg width="60" height="60" viewBox="0 0 60 60" fill="none" xmlns="http://www.w3.org/2000/svg">
<path d="M53.9992 5.99605C50.1068 2.13913 44.9818 0 39.5 0C34.0182 0 28.8932 2.13913 25.0008 5.99605C21.9842 9.01028 20.0055 12.8348 19.2919 16.951C19.2271 17.3723 19.1622 17.7937 19.1297 18.215C19.0973 18.6364 19.0649 19.0577 19.0324 19.4791C19 19.8032 19 20.1597 19 20.4838V23.2711V24.5352V25.7992V41H34.2128H35.4778H36.7429C36.7753 40.6435 36.7753 40.3194 36.7753 39.9628V37.2079H35.5103H22.7951V25.7668V23.2711V20.5162C22.7951 20.1597 22.7951 19.8356 22.8275 19.4791C22.86 19.0577 22.8924 18.6364 22.9573 18.215C23.0222 17.7937 23.087 17.3723 23.1843 16.951C23.8655 13.7747 25.4873 10.9225 27.693 8.68617C30.7097 5.67194 34.894 3.79209 39.5 3.79209C48.712 3.79209 56.2049 11.2791 56.2049 20.4838C56.2049 25.0862 54.3236 29.2672 51.307 32.2814C49.0688 34.5178 46.2144 36.1059 43.0356 36.7866V37.1431V39.9304C43.0356 40.1897 43.0356 40.4166 43.0356 40.6759C47.1551 39.9628 50.9826 37.9858 53.9992 34.9715C57.8592 31.1146 60 25.9613 60 20.4838C60 15.0063 57.8592 9.85296 53.9992 5.99605Z" fill="#F7654A"/>
<path d="M23.2571 22.7951H24.5222H25.7872H37.2373V34.2453V35.5103V36.7753V39.5324C37.2373 39.8892 37.2373 40.2136 37.2049 40.5704C37.1725 40.9921 37.14 41.4138 37.0752 41.8354C37.0103 42.2571 36.9454 42.6788 36.8481 43.1005C36.1669 46.2793 34.5451 49.1337 32.3394 51.3718C29.3228 54.3885 25.1384 56.2698 20.5324 56.2698C11.3204 56.2698 3.82753 48.7769 3.82753 39.5649C3.82753 34.9589 5.70886 30.7745 8.72547 27.7579C10.9636 25.5198 13.818 23.9304 16.9968 23.2492V20.1028C16.9968 19.8434 16.9968 19.6163 16.9968 19.3568C12.8774 20.0704 9.04984 22.049 6.03323 25.0657C2.14082 28.8608 0 34.0182 0 39.5C0 44.9818 2.14082 50.1068 6.00079 53.9992C9.86076 57.8592 15.0182 60 20.5 60C25.9818 60 31.1068 57.8592 34.9992 53.9992C38.6321 50.3663 40.7405 45.5981 40.9676 40.5055C40.9676 40.3434 40.9676 40.1812 41 40.019C41 39.9217 41 39.8568 41 39.7595C41 39.6622 41 39.5973 41 39.5V36.7104V19H25.7872H24.5222H23.2571C23.2247 19.3568 23.2247 19.6812 23.2247 20.038L23.2571 22.7951Z" fill="#F7654A"/>
</svg>
